<mxfile host="app.diagrams.net" agent="Mozilla/5.0 (Windows NT 10.0; Win64; x64; rv:135.0) Gecko/20100101 Firefox/135.0" version="26.0.16">
  <diagram id="C5RBs43oDa-KdzZeNtuy" name="Page-1">
    <mxGraphModel dx="1909" dy="2198" grid="1" gridSize="10" guides="1" tooltips="1" connect="1" arrows="1" fold="1" page="1" pageScale="1" pageWidth="827" pageHeight="1169" math="0" shadow="0">
      <root>
        <mxCell id="WIyWlLk6GJQsqaUBKTNV-0" />
        <mxCell id="WIyWlLk6GJQsqaUBKTNV-1" parent="WIyWlLk6GJQsqaUBKTNV-0" />
        <mxCell id="1rIXMKJo600LACsvHt_l-20" value="" style="rounded=1;whiteSpace=wrap;html=1;absoluteArcSize=1;arcSize=14;strokeWidth=1;fillColor=#eeeeee;strokeColor=default;dashed=1;" vertex="1" parent="WIyWlLk6GJQsqaUBKTNV-1">
          <mxGeometry x="110" y="430" width="220" height="270" as="geometry" />
        </mxCell>
        <mxCell id="WIyWlLk6GJQsqaUBKTNV-2" value="" style="rounded=0;html=1;jettySize=auto;orthogonalLoop=1;fontSize=11;endArrow=classic;endFill=1;endSize=8;strokeWidth=1;shadow=0;labelBackgroundColor=none;edgeStyle=orthogonalEdgeStyle;entryX=0.5;entryY=0;entryDx=0;entryDy=0;exitX=0.5;exitY=1;exitDx=0;exitDy=0;" parent="WIyWlLk6GJQsqaUBKTNV-1" source="WIyWlLk6GJQsqaUBKTNV-3" target="1rIXMKJo600LACsvHt_l-0" edge="1">
          <mxGeometry relative="1" as="geometry" />
        </mxCell>
        <mxCell id="WIyWlLk6GJQsqaUBKTNV-3" value="app_setup&lt;br&gt;&lt;span style=&quot;color: rgb(102, 102, 102);&quot;&gt;&lt;font style=&quot;font-size: 10px;&quot;&gt;RTC, SHT4x and&lt;br&gt;nRF24 initialization&lt;/font&gt;&lt;/span&gt;" style="rounded=1;whiteSpace=wrap;html=1;fontSize=12;glass=0;strokeWidth=1;shadow=0;" parent="WIyWlLk6GJQsqaUBKTNV-1" vertex="1">
          <mxGeometry x="150" y="20" width="140" height="50" as="geometry" />
        </mxCell>
        <mxCell id="1rIXMKJo600LACsvHt_l-3" value="" style="edgeStyle=orthogonalEdgeStyle;rounded=0;orthogonalLoop=1;jettySize=auto;html=1;entryX=0.5;entryY=0;entryDx=0;entryDy=0;entryPerimeter=0;exitX=0.5;exitY=1;exitDx=0;exitDy=0;" edge="1" parent="WIyWlLk6GJQsqaUBKTNV-1" source="1rIXMKJo600LACsvHt_l-0" target="1rIXMKJo600LACsvHt_l-4">
          <mxGeometry relative="1" as="geometry">
            <mxPoint x="220" y="170" as="targetPoint" />
          </mxGeometry>
        </mxCell>
        <mxCell id="1rIXMKJo600LACsvHt_l-0" value="handle_state_idle&lt;br&gt;&lt;font style=&quot;font-size: 10px; color: rgb(128, 128, 128);&quot;&gt;SHT4x conversion started, VDDA measured via ADC&lt;/font&gt;" style="rounded=1;whiteSpace=wrap;html=1;absoluteArcSize=1;arcSize=14;strokeWidth=1;" vertex="1" parent="WIyWlLk6GJQsqaUBKTNV-1">
          <mxGeometry x="150" y="90" width="140" height="50" as="geometry" />
        </mxCell>
        <mxCell id="1rIXMKJo600LACsvHt_l-2" style="edgeStyle=orthogonalEdgeStyle;rounded=0;orthogonalLoop=1;jettySize=auto;html=1;entryX=0.5;entryY=0;entryDx=0;entryDy=0;exitX=0.5;exitY=1;exitDx=0;exitDy=0;exitPerimeter=0;" edge="1" parent="WIyWlLk6GJQsqaUBKTNV-1" source="1rIXMKJo600LACsvHt_l-1" target="WIyWlLk6GJQsqaUBKTNV-3">
          <mxGeometry relative="1" as="geometry" />
        </mxCell>
        <mxCell id="1rIXMKJo600LACsvHt_l-1" value="Program start" style="strokeWidth=1;html=1;shape=mxgraph.flowchart.start_1;whiteSpace=wrap;" vertex="1" parent="WIyWlLk6GJQsqaUBKTNV-1">
          <mxGeometry x="170" y="-60" width="100" height="60" as="geometry" />
        </mxCell>
        <mxCell id="1rIXMKJo600LACsvHt_l-6" value="" style="edgeStyle=orthogonalEdgeStyle;rounded=0;orthogonalLoop=1;jettySize=auto;html=1;exitX=0.5;exitY=1;exitDx=0;exitDy=0;exitPerimeter=0;entryX=0.5;entryY=0;entryDx=0;entryDy=0;" edge="1" parent="WIyWlLk6GJQsqaUBKTNV-1" source="1rIXMKJo600LACsvHt_l-4" target="1rIXMKJo600LACsvHt_l-5">
          <mxGeometry relative="1" as="geometry" />
        </mxCell>
        <mxCell id="1rIXMKJo600LACsvHt_l-4" value="sleep for 6.7 ms&lt;br&gt;&lt;font style=&quot;font-size: 10px; color: rgb(128, 128, 128);&quot;&gt;(SHT4x measurement time - nRF24 power-up time)&lt;/font&gt;" style="strokeWidth=1;html=1;shape=mxgraph.flowchart.delay;whiteSpace=wrap;" vertex="1" parent="WIyWlLk6GJQsqaUBKTNV-1">
          <mxGeometry x="150" y="160" width="140" height="50" as="geometry" />
        </mxCell>
        <mxCell id="1rIXMKJo600LACsvHt_l-8" value="" style="edgeStyle=orthogonalEdgeStyle;rounded=0;orthogonalLoop=1;jettySize=auto;html=1;entryX=0.5;entryY=0;entryDx=0;entryDy=0;entryPerimeter=0;exitX=0.5;exitY=1;exitDx=0;exitDy=0;" edge="1" parent="WIyWlLk6GJQsqaUBKTNV-1" source="1rIXMKJo600LACsvHt_l-5" target="1rIXMKJo600LACsvHt_l-7">
          <mxGeometry relative="1" as="geometry" />
        </mxCell>
        <mxCell id="1rIXMKJo600LACsvHt_l-5" value="handle_state_phase1&lt;br&gt;&lt;font style=&quot;font-size: 10px; color: rgb(128, 128, 128);&quot;&gt;send power-up command&lt;br&gt;to nRF24&lt;/font&gt;" style="rounded=1;whiteSpace=wrap;html=1;absoluteArcSize=1;arcSize=14;strokeWidth=1;" vertex="1" parent="WIyWlLk6GJQsqaUBKTNV-1">
          <mxGeometry x="150" y="230" width="140" height="50" as="geometry" />
        </mxCell>
        <mxCell id="1rIXMKJo600LACsvHt_l-10" value="" style="edgeStyle=orthogonalEdgeStyle;rounded=0;orthogonalLoop=1;jettySize=auto;html=1;entryX=0.5;entryY=0;entryDx=0;entryDy=0;exitX=0.5;exitY=1;exitDx=0;exitDy=0;exitPerimeter=0;" edge="1" parent="WIyWlLk6GJQsqaUBKTNV-1" source="1rIXMKJo600LACsvHt_l-7" target="1rIXMKJo600LACsvHt_l-9">
          <mxGeometry relative="1" as="geometry">
            <mxPoint x="220" y="390" as="sourcePoint" />
          </mxGeometry>
        </mxCell>
        <mxCell id="1rIXMKJo600LACsvHt_l-7" value="sleep for 1.5 ms&lt;br&gt;&lt;font style=&quot;font-size: 10px; color: rgb(128, 128, 128);&quot;&gt;(nRF24 power-up time)&lt;/font&gt;" style="strokeWidth=1;html=1;shape=mxgraph.flowchart.delay;whiteSpace=wrap;" vertex="1" parent="WIyWlLk6GJQsqaUBKTNV-1">
          <mxGeometry x="150" y="300" width="140" height="40" as="geometry" />
        </mxCell>
        <mxCell id="1rIXMKJo600LACsvHt_l-12" value="" style="edgeStyle=orthogonalEdgeStyle;rounded=0;orthogonalLoop=1;jettySize=auto;html=1;entryX=0.5;entryY=0;entryDx=0;entryDy=0;entryPerimeter=0;exitX=0.5;exitY=1;exitDx=0;exitDy=0;" edge="1" parent="WIyWlLk6GJQsqaUBKTNV-1" source="1rIXMKJo600LACsvHt_l-9" target="1rIXMKJo600LACsvHt_l-11">
          <mxGeometry relative="1" as="geometry" />
        </mxCell>
        <mxCell id="1rIXMKJo600LACsvHt_l-9" value="handle_state_phase2&lt;br&gt;&lt;font style=&quot;font-size: 10px; color: rgb(128, 128, 128);&quot;&gt;read SHT4x measurement, build payload, transmit payload via nRF24,&lt;br&gt;start watchdog timer&lt;/font&gt;" style="rounded=1;whiteSpace=wrap;html=1;absoluteArcSize=1;arcSize=14;strokeWidth=1;" vertex="1" parent="WIyWlLk6GJQsqaUBKTNV-1">
          <mxGeometry x="130" y="360" width="180" height="60" as="geometry" />
        </mxCell>
        <mxCell id="1rIXMKJo600LACsvHt_l-14" value="" style="edgeStyle=orthogonalEdgeStyle;rounded=0;orthogonalLoop=1;jettySize=auto;html=1;entryX=0.5;entryY=1;entryDx=0;entryDy=0;" edge="1" parent="WIyWlLk6GJQsqaUBKTNV-1" source="1rIXMKJo600LACsvHt_l-11" target="1rIXMKJo600LACsvHt_l-50">
          <mxGeometry relative="1" as="geometry">
            <mxPoint x="400" y="485" as="targetPoint" />
            <Array as="points">
              <mxPoint x="405" y="485" />
            </Array>
          </mxGeometry>
        </mxCell>
        <mxCell id="1rIXMKJo600LACsvHt_l-23" value="Yes" style="edgeLabel;html=1;align=center;verticalAlign=middle;resizable=0;points=[];" vertex="1" connectable="0" parent="1rIXMKJo600LACsvHt_l-14">
          <mxGeometry x="0.0801" y="-2" relative="1" as="geometry">
            <mxPoint x="-147" y="35" as="offset" />
          </mxGeometry>
        </mxCell>
        <mxCell id="1rIXMKJo600LACsvHt_l-17" value="" style="edgeStyle=orthogonalEdgeStyle;rounded=0;orthogonalLoop=1;jettySize=auto;html=1;entryX=0.5;entryY=0;entryDx=0;entryDy=0;entryPerimeter=0;exitX=0.5;exitY=1;exitDx=0;exitDy=0;exitPerimeter=0;" edge="1" parent="WIyWlLk6GJQsqaUBKTNV-1" source="1rIXMKJo600LACsvHt_l-11" target="1rIXMKJo600LACsvHt_l-16">
          <mxGeometry relative="1" as="geometry" />
        </mxCell>
        <mxCell id="1rIXMKJo600LACsvHt_l-24" value="No" style="edgeLabel;html=1;align=center;verticalAlign=middle;resizable=0;points=[];" vertex="1" connectable="0" parent="1rIXMKJo600LACsvHt_l-17">
          <mxGeometry x="-0.2" y="1" relative="1" as="geometry">
            <mxPoint as="offset" />
          </mxGeometry>
        </mxCell>
        <mxCell id="1rIXMKJo600LACsvHt_l-11" value="Has watchdog&lt;br&gt;timer run out?" style="strokeWidth=1;html=1;shape=mxgraph.flowchart.decision;whiteSpace=wrap;" vertex="1" parent="WIyWlLk6GJQsqaUBKTNV-1">
          <mxGeometry x="150" y="450" width="140" height="70" as="geometry" />
        </mxCell>
        <mxCell id="1rIXMKJo600LACsvHt_l-35" value="" style="edgeStyle=orthogonalEdgeStyle;rounded=0;orthogonalLoop=1;jettySize=auto;html=1;" edge="1" parent="WIyWlLk6GJQsqaUBKTNV-1" source="1rIXMKJo600LACsvHt_l-15" target="1rIXMKJo600LACsvHt_l-34">
          <mxGeometry relative="1" as="geometry" />
        </mxCell>
        <mxCell id="1rIXMKJo600LACsvHt_l-15" value="disable watchdog timer,&lt;br&gt;read nRF24 IRQ flags,&lt;br&gt;send power-down command to nRF24" style="rounded=1;whiteSpace=wrap;html=1;absoluteArcSize=1;arcSize=14;strokeWidth=1;" vertex="1" parent="WIyWlLk6GJQsqaUBKTNV-1">
          <mxGeometry x="140" y="630" width="160" height="60" as="geometry" />
        </mxCell>
        <mxCell id="1rIXMKJo600LACsvHt_l-18" value="" style="edgeStyle=orthogonalEdgeStyle;rounded=0;orthogonalLoop=1;jettySize=auto;html=1;entryX=0.5;entryY=0;entryDx=0;entryDy=0;" edge="1" parent="WIyWlLk6GJQsqaUBKTNV-1" source="1rIXMKJo600LACsvHt_l-16" target="1rIXMKJo600LACsvHt_l-15">
          <mxGeometry relative="1" as="geometry">
            <mxPoint x="220" y="650" as="targetPoint" />
          </mxGeometry>
        </mxCell>
        <mxCell id="1rIXMKJo600LACsvHt_l-25" value="Yes" style="edgeLabel;html=1;align=center;verticalAlign=middle;resizable=0;points=[];" vertex="1" connectable="0" parent="1rIXMKJo600LACsvHt_l-18">
          <mxGeometry x="0.3393" y="2" relative="1" as="geometry">
            <mxPoint x="-2" y="-3" as="offset" />
          </mxGeometry>
        </mxCell>
        <mxCell id="1rIXMKJo600LACsvHt_l-30" value="" style="edgeStyle=orthogonalEdgeStyle;rounded=0;orthogonalLoop=1;jettySize=auto;html=1;entryX=0;entryY=0.5;entryDx=0;entryDy=0;entryPerimeter=0;exitX=0;exitY=0.5;exitDx=0;exitDy=0;exitPerimeter=0;" edge="1" parent="WIyWlLk6GJQsqaUBKTNV-1" source="1rIXMKJo600LACsvHt_l-16" target="1rIXMKJo600LACsvHt_l-11">
          <mxGeometry relative="1" as="geometry">
            <mxPoint x="60" y="585" as="targetPoint" />
            <Array as="points">
              <mxPoint x="130" y="577" />
              <mxPoint x="130" y="485" />
            </Array>
          </mxGeometry>
        </mxCell>
        <mxCell id="1rIXMKJo600LACsvHt_l-31" value="No" style="edgeLabel;html=1;align=center;verticalAlign=middle;resizable=0;points=[];" vertex="1" connectable="0" parent="1rIXMKJo600LACsvHt_l-30">
          <mxGeometry x="-0.0207" y="4" relative="1" as="geometry">
            <mxPoint as="offset" />
          </mxGeometry>
        </mxCell>
        <mxCell id="1rIXMKJo600LACsvHt_l-16" value="nRF24 interrupt&lt;br&gt;triggered?" style="strokeWidth=1;html=1;shape=mxgraph.flowchart.decision;whiteSpace=wrap;fontSize=11;" vertex="1" parent="WIyWlLk6GJQsqaUBKTNV-1">
          <mxGeometry x="140" y="552.5" width="160" height="47.5" as="geometry" />
        </mxCell>
        <mxCell id="1rIXMKJo600LACsvHt_l-22" value="handle_state_awaiting_ack" style="text;html=1;align=center;verticalAlign=middle;whiteSpace=wrap;rounded=0;direction=east;rotation=90;" vertex="1" parent="WIyWlLk6GJQsqaUBKTNV-1">
          <mxGeometry x="310" y="590" width="60" height="30" as="geometry" />
        </mxCell>
        <mxCell id="1rIXMKJo600LACsvHt_l-37" value="" style="edgeStyle=orthogonalEdgeStyle;rounded=0;orthogonalLoop=1;jettySize=auto;html=1;entryX=0.5;entryY=1;entryDx=0;entryDy=0;" edge="1" parent="WIyWlLk6GJQsqaUBKTNV-1" source="1rIXMKJo600LACsvHt_l-34" target="1rIXMKJo600LACsvHt_l-50">
          <mxGeometry relative="1" as="geometry">
            <mxPoint x="370" y="740" as="targetPoint" />
          </mxGeometry>
        </mxCell>
        <mxCell id="1rIXMKJo600LACsvHt_l-38" value="No" style="edgeLabel;html=1;align=center;verticalAlign=middle;resizable=0;points=[];" vertex="1" connectable="0" parent="1rIXMKJo600LACsvHt_l-37">
          <mxGeometry x="0.0062" relative="1" as="geometry">
            <mxPoint x="-145" y="149" as="offset" />
          </mxGeometry>
        </mxCell>
        <mxCell id="1rIXMKJo600LACsvHt_l-40" value="" style="edgeStyle=orthogonalEdgeStyle;rounded=0;orthogonalLoop=1;jettySize=auto;html=1;entryX=0.5;entryY=0;entryDx=0;entryDy=0;" edge="1" parent="WIyWlLk6GJQsqaUBKTNV-1" source="1rIXMKJo600LACsvHt_l-34" target="1rIXMKJo600LACsvHt_l-42">
          <mxGeometry relative="1" as="geometry">
            <mxPoint x="220" y="840" as="targetPoint" />
          </mxGeometry>
        </mxCell>
        <mxCell id="1rIXMKJo600LACsvHt_l-41" value="Yes" style="edgeLabel;html=1;align=center;verticalAlign=middle;resizable=0;points=[];" vertex="1" connectable="0" parent="1rIXMKJo600LACsvHt_l-40">
          <mxGeometry x="-0.2795" y="-1" relative="1" as="geometry">
            <mxPoint y="-8" as="offset" />
          </mxGeometry>
        </mxCell>
        <mxCell id="1rIXMKJo600LACsvHt_l-34" value="ACK received?" style="rhombus;whiteSpace=wrap;html=1;rounded=0;arcSize=14;strokeWidth=1;" vertex="1" parent="WIyWlLk6GJQsqaUBKTNV-1">
          <mxGeometry x="150" y="720" width="140" height="40" as="geometry" />
        </mxCell>
        <mxCell id="1rIXMKJo600LACsvHt_l-44" value="" style="edgeStyle=orthogonalEdgeStyle;rounded=0;orthogonalLoop=1;jettySize=auto;html=1;" edge="1" parent="WIyWlLk6GJQsqaUBKTNV-1" source="1rIXMKJo600LACsvHt_l-42" target="1rIXMKJo600LACsvHt_l-43">
          <mxGeometry relative="1" as="geometry" />
        </mxCell>
        <mxCell id="1rIXMKJo600LACsvHt_l-42" value="handle_state_sleep&lt;br&gt;&lt;font style=&quot;font-size: 10px; color: rgb(128, 128, 128);&quot;&gt;entering stop mode&lt;/font&gt;" style="rounded=1;whiteSpace=wrap;html=1;absoluteArcSize=1;arcSize=14;strokeWidth=1;" vertex="1" parent="WIyWlLk6GJQsqaUBKTNV-1">
          <mxGeometry x="160" y="790" width="120" height="40" as="geometry" />
        </mxCell>
        <mxCell id="1rIXMKJo600LACsvHt_l-46" value="" style="edgeStyle=orthogonalEdgeStyle;rounded=0;orthogonalLoop=1;jettySize=auto;html=1;entryX=1;entryY=0.5;entryDx=0;entryDy=0;" edge="1" parent="WIyWlLk6GJQsqaUBKTNV-1" source="1rIXMKJo600LACsvHt_l-43" target="1rIXMKJo600LACsvHt_l-0">
          <mxGeometry relative="1" as="geometry">
            <mxPoint x="380" y="890" as="targetPoint" />
            <Array as="points">
              <mxPoint x="490" y="890" />
              <mxPoint x="490" y="115" />
            </Array>
          </mxGeometry>
        </mxCell>
        <mxCell id="1rIXMKJo600LACsvHt_l-51" value="Yes" style="edgeLabel;html=1;align=center;verticalAlign=middle;resizable=0;points=[];" vertex="1" connectable="0" parent="1rIXMKJo600LACsvHt_l-46">
          <mxGeometry x="0.0647" relative="1" as="geometry">
            <mxPoint x="-230" y="424" as="offset" />
          </mxGeometry>
        </mxCell>
        <mxCell id="1rIXMKJo600LACsvHt_l-48" value="" style="edgeStyle=orthogonalEdgeStyle;rounded=0;orthogonalLoop=1;jettySize=auto;html=1;entryX=0;entryY=0.5;entryDx=0;entryDy=0;" edge="1" parent="WIyWlLk6GJQsqaUBKTNV-1" source="1rIXMKJo600LACsvHt_l-43" target="1rIXMKJo600LACsvHt_l-42">
          <mxGeometry relative="1" as="geometry">
            <mxPoint x="60" y="890" as="targetPoint" />
            <Array as="points">
              <mxPoint x="140" y="890" />
              <mxPoint x="140" y="810" />
            </Array>
          </mxGeometry>
        </mxCell>
        <mxCell id="1rIXMKJo600LACsvHt_l-49" value="No" style="edgeLabel;html=1;align=center;verticalAlign=middle;resizable=0;points=[];" vertex="1" connectable="0" parent="1rIXMKJo600LACsvHt_l-48">
          <mxGeometry x="-0.005" y="3" relative="1" as="geometry">
            <mxPoint as="offset" />
          </mxGeometry>
        </mxCell>
        <mxCell id="1rIXMKJo600LACsvHt_l-43" value="Woken up by&lt;br&gt;RTC interrupt?" style="rhombus;whiteSpace=wrap;html=1;rounded=0;arcSize=14;strokeWidth=1;" vertex="1" parent="WIyWlLk6GJQsqaUBKTNV-1">
          <mxGeometry x="160" y="850" width="120" height="80" as="geometry" />
        </mxCell>
        <mxCell id="1rIXMKJo600LACsvHt_l-53" value="" style="edgeStyle=orthogonalEdgeStyle;rounded=0;orthogonalLoop=1;jettySize=auto;html=1;entryX=1;entryY=0.5;entryDx=0;entryDy=0;exitX=0.5;exitY=0;exitDx=0;exitDy=0;" edge="1" parent="WIyWlLk6GJQsqaUBKTNV-1" source="1rIXMKJo600LACsvHt_l-50" target="1rIXMKJo600LACsvHt_l-0">
          <mxGeometry relative="1" as="geometry">
            <mxPoint x="455" y="150" as="targetPoint" />
            <Array as="points">
              <mxPoint x="405" y="115" />
            </Array>
          </mxGeometry>
        </mxCell>
        <mxCell id="1rIXMKJo600LACsvHt_l-50" value="handle_state_errror&lt;br&gt;&lt;span style=&quot;color: rgb(128, 128, 128);&quot;&gt;(dummy state, does nothing)&lt;/span&gt;" style="rounded=1;whiteSpace=wrap;html=1;absoluteArcSize=1;arcSize=14;strokeWidth=1;" vertex="1" parent="WIyWlLk6GJQsqaUBKTNV-1">
          <mxGeometry x="340" y="230" width="130" height="50" as="geometry" />
        </mxCell>
      </root>
    </mxGraphModel>
  </diagram>
</mxfile>
